# xmcd
#
# Track frame offsets:
#	150
#	22801
#	47853
#	60004
#	79355
#	92835
#	108956
#	126596
#	160895
#	171740
#	198564
#	213848
#	225832
#	246757
#
# Disc length: 3486 seconds
#
# Revision: 1
# Processed by: cddbd v1.5.2PL0 Copyright (c) Steve Scherf et al.
# Submitted via: audiograbber 1.82.01
#
DISCID=b60d9c0e
DTITLE=Manuelcha Prado - SAQRA
DYEAR=2001
DGENRE=
TTITLE0=Saksaywamanpi
TTITLE1=Torovelay
TTITLE2=Tu amor comprare
TTITLE3=Carnavales de mi Tierra
TTITLE4=Kukulinay
TTITLE5=Waylas ancestral
TTITLE6=Kavilando
TTITLE7=Sindrome colonial
TTITLE8=Saqra
TTITLE9=Galapando al sur
TTITLE10=Lucero
TTITLE11=K' anchi
TTITLE12=Plegaria a los Dioses Montana
TTITLE13=dsa
EXTD=
EXTT0=
EXTT1=
EXTT2=
EXTT3=
EXTT4=
EXTT5=
EXTT6=
EXTT7=
EXTT8=
EXTT9=
EXTT10=
EXTT11=
EXTT12=
EXTT13=
PLAYORDER=
